<?xml version="1.0" encoding="UTF-8" standalone="no"?>
<!-- Creator: CorelDRAW -->

<svg
   xmlns:dc="http://purl.org/dc/elements/1.1/"
   xmlns:cc="http://creativecommons.org/ns#"
   xmlns:rdf="http://www.w3.org/1999/02/22-rdf-syntax-ns#"
   xmlns:svg="http://www.w3.org/2000/svg"
   xmlns="http://www.w3.org/2000/svg"
   xmlns:sodipodi="http://sodipodi.sourceforge.net/DTD/sodipodi-0.dtd"
   xmlns:inkscape="http://www.inkscape.org/namespaces/inkscape"
   xml:space="preserve"
   width="262.00311"
   height="262.00311"
   style="fill-rule:evenodd"
   viewBox="0 0 30.962001 30.962001"
   id="svg3021"
   version="1.1"
   inkscape:version="0.48.4 r9939"
   sodipodi:docname="logo_facena.svg"
   inkscape:export-filename="D:\Mis documentos\Dario\web\logo_facena.png"
   inkscape:export-xdpi="90"
   inkscape:export-ydpi="90"><metadata
   id="metadata3055"><rdf:RDF><cc:Work
       rdf:about=""><dc:format>image/svg+xml</dc:format><dc:type
         rdf:resource="http://purl.org/dc/dcmitype/StillImage" /><dc:title></dc:title></cc:Work></rdf:RDF></metadata><sodipodi:namedview
   pagecolor="#ffffff"
   bordercolor="#666666"
   borderopacity="1"
   objecttolerance="10"
   gridtolerance="10"
   guidetolerance="10"
   inkscape:pageopacity="0"
   inkscape:pageshadow="2"
   inkscape:window-width="1618"
   inkscape:window-height="1027"
   id="namedview3053"
   showgrid="false"
   showguides="true"
   inkscape:guide-bbox="true"
   fit-margin-top="0"
   fit-margin-left="0"
   fit-margin-right="0"
   fit-margin-bottom="0"
   inkscape:zoom="0.63692831"
   inkscape:cx="237.03308"
   inkscape:cy="-185.0695"
   inkscape:window-x="-8"
   inkscape:window-y="-8"
   inkscape:window-maximized="1"
   inkscape:current-layer="svg3021" />
 <defs
   id="defs3023">
  <style
   type="text/css"
   id="style3025">
   
    .fil3 {fill:none}
    .fil1 {fill:#464C64}
    .fil0 {fill:#994946}
    .fil4 {fill:#FFE434}
    .fil2 {fill:#FFE434;fill-rule:nonzero}
   
  </style>
 
</defs>
 



<g
   id="Capa_x0020_1"
   inkscape:export-filename="D:\Mis documentos\web\congresoGenetica Datos\imagenes\logo_facena.png"
   inkscape:export-xdpi="90"
   inkscape:export-ydpi="90">
  <metadata
   id="CorelCorpID_0Corel-Layer" />
  <polygon
   class="fil0"
   points="0,0 30.962,0 30.962,30.962 0,30.962 "
   id="polygon3029"
   style="fill:#994946" />
  <polygon
   class="fil1"
   points="2.82466,2.78404 28.0169,2.78404 28.0169,27.9763 2.82466,27.9763 "
   id="polygon3031"
   style="fill:#464c64" />
  <path
   class="fil2"
   d="m 2.82449,2.36481 25.1926,0 0.418728,0 0,0.418728 0,25.1928 0,0.418686 -0.418728,4.2e-5 -25.1926,0 -0.418728,-4.2e-5 0,-0.418686 0,-25.1928 0,-0.418728 0.418728,0 z m 24.7739,0.837456 -24.3551,0 0,24.3554 24.3551,0 0,-24.3554 z"
   id="path3033"
   inkscape:connector-curvature="0"
   style="fill:#ffe434;fill-rule:nonzero" />
  <polygon
   class="fil3"
   points="15.4208,3.2103 15.4208,3.2103 27.6759,27.955 3.16567,27.955 "
   id="polygon3035"
   style="fill:none" />
  <path
   class="fil2"
   d="m 15.7956,3.02602 12.255,24.7441 0.298888,0.603555 -0.67344,0 -24.5105,0 -0.673524,0 0.298972,-0.603555 12.2555,-24.7441 0.374552,-0.756265 0.374552,0.756265 z m 11.207,24.5102 -11.5816,-23.3843 -11.582,23.3843 23.1636,0 z"
   id="path3037"
   inkscape:connector-curvature="0"
   style="fill:#ffe434;fill-rule:nonzero" />
  <line
   class="fil3"
   x1="2.9815099"
   y1="2.89483"
   x2="28.143499"
   y2="28.056801"
   id="line3039"
   style="fill:none" />
  <polygon
   class="fil2"
   points="3.27764,2.59854 28.4397,27.7608 27.8476,28.3529 2.68555,3.19062 "
   id="polygon3041"
   style="fill:#ffe434;fill-rule:nonzero" />
  <path
   class="fil3"
   d="m 15.4634,15.4228 0,12.5109 c -6.90843,0 -12.5109,-5.60246 -12.5109,-12.5109 0,-6.87175 5.54291,-12.459 12.4147,-12.5109 l 0.09622,12.5109 z"
   id="path3043"
   inkscape:connector-curvature="0"
   style="fill:none" />
  <path
   class="fil2"
   d="m 15.8822,15.4228 0,12.5108 0,0.418728 -0.418728,0 -2.93e-4,0 0,-0.0016 c -3.57066,-8.4e-5 -6.8030301,-1.447 -9.1418801,-3.78589 -2.33872,-2.33876 -3.78559,-5.57088 -3.78576,-9.14142 l -0.00163,0 0,-6.28e-4 0.00163,0 4.19e-5,-0.03304 c 0.00255,-0.995735 0.116909,-1.96275 0.330921,-2.88885 0.214305,-0.927064 0.529482,-1.81808 0.93347,-2.6606397 2.06898,-4.31516 6.4629002,-7.3068 11.5660002,-7.34558 l 0.415504,-0.00318 0.0032,0.418644 0.09585,12.5109997 0.0016,0.0016 z m -0.837456,12.0863 0,-12.0863 0.0016,0 -0.09258,-12.0836 c -4.59433,0.190186 -8.5224598,2.94203 -10.4014998,6.8609 -0.375892,0.783943 -0.670049,1.61683 -0.871247,2.48729 -0.201366,0.871373 -0.308979,1.77612 -0.311324,2.70235 l -4.18e-5,0.03304 0.00163,0 0,6.28e-4 -0.00163,0 c 1.256e-4,3.33718 1.3545,6.36014 3.54365,8.54934 2.09745,2.09749 4.9601696,3.42829 8.1313596,3.53637 z"
   id="path3045"
   inkscape:connector-curvature="0"
   style="fill:#ffe434;fill-rule:nonzero" />
  <line
   class="fil3"
   x1="3.33617"
   y1="15.4228"
   x2="27.5923"
   y2="15.4352"
   id="line3047"
   style="fill:none" />
  <polygon
   class="fil2"
   points="3.33596,15.0057 27.5924,15.0181 27.5924,15.8523 3.33596,15.8399 "
   id="polygon3049"
   style="fill:#ffe434;fill-rule:nonzero" />
  <path
   class="fil4"
   d="m 23.0393,3.11328 0.122227,1.64016 c 0.05288,0.00205 0.105352,0.00544 0.1574,0.010426 l 0.407422,-1.60159 -0.09974,1.64816 c 0.07056,0.014823 0.140106,0.032242 0.208652,0.052257 l 0.733402,-1.46927 -0.430201,1.57726 c 0.04966,0.02102 0.0984,0.043506 0.146555,0.067248 l 0.894696,-1.3571 -0.561431,1.55147 c 0.05062,0.034419 0.09999,0.070472 0.148188,0.108116 l 1.09351,-1.21674 -0.90215,1.38063 c 0.04535,0.042459 0.08927,0.086509 0.13169,0.131899 l 1.3187,-0.983927 -1.15736,1.17256 c 0.03798,0.048614 0.07441,0.098569 0.109162,0.149737 l 1.50411,-0.668457 -1.34479,0.933722 c 0.0278,0.052676 0.05402,0.106231 0.07851,0.160833 l 1.58032,-0.394484 -1.47254,0.67545 c 0.02165,0.066997 0.04078,0.13504 0.05741,0.20413 l 1.63643,-0.057031 -1.58463,0.334229 c 0.008,0.058706 0.01403,0.117956 0.01826,0.177792 l 1.75112,0.211332 -1.74739,0.123357 c -0.0029,0.059878 -0.0078,0.119296 -0.01445,0.178169 l 1.48439,0.438366 -1.53891,-0.119924 c -0.01512,0.064819 -0.03237,0.128801 -0.05188,0.191819 l 1.45215,0.75392 -1.56148,-0.461061 c -0.02625,0.05992 -0.05456,0.118709 -0.08483,0.176326 l 1.31594,0.998164 -1.49436,-0.704175 c -0.03333,0.047986 -0.06808,0.094884 -0.104263,0.140609 l 1.14979,1.164691 -1.33135,-0.957171 c -0.04393,0.045516 -0.0894,0.089524 -0.136338,0.131983 l 0.905834,1.35392 -1.14225,-1.16264 c -0.04799,0.034754 -0.09719,0.068043 -0.147392,0.099741 l 0.655393,1.47221 -0.884814,-1.34219 c -0.05678,0.02877 -0.114606,0.05565 -0.173563,0.08052 l 0.35818,1.59196 -0.637848,-1.49155 c -0.06474,0.01943 -0.130392,0.03655 -0.19697,0.05134 l 0.0685,1.62517 -0.402858,-1.5722 c -0.05917,0.0057 -0.119003,0.0095 -0.179216,0.01147 l -0.118165,1.62052 -0.19429,-1.62751 c -0.06574,-0.0051 -0.130811,-0.01269 -0.195169,-0.02228 l -0.350433,1.5768 0.07914,-1.63141 c -0.0644,-0.01629 -0.127838,-0.03492 -0.190312,-0.05565 l -0.6551,1.48887 0.415043,-1.58108 c -0.05741,-0.02512 -0.113727,-0.05213 -0.168999,-0.08094 l -0.946283,1.38457 0.722348,-1.5149198 c -0.05322,-0.034378 -0.105268,-0.07043 -0.155892,-0.108241 l -1.18743,1.1475198 0.963074,-1.3342798 c -0.0448,-0.041328 -0.08831,-0.084039 -0.130308,-0.128256 l -1.36124,0.9208248 1.17194,-1.1423698 c -0.03928,-0.051043 -0.07684,-0.103384 -0.112596,-0.157107 l -1.52174,0.691739 1.363,-0.962153 c -0.02839,-0.055272 -0.05485,-0.111717 -0.0796,-0.169082 l -1.61374,0.430997 1.51358,-0.700951 c -0.01763,-0.056403 -0.03325,-0.113685 -0.04732,-0.171553 l -1.70406,0.132611 1.64619,-0.449881 c -0.0073,-0.059082 -0.0126,-0.118793 -0.01612,-0.178922 l -1.71591,-0.16389 1.71704,-0.182356 c 0.0038,-0.05812 0.0091,-0.115946 0.01641,-0.17306 l -1.65414,-0.384476 1.70071,0.121138 c 0.01482,-0.065363 0.03195,-0.129889 0.05129,-0.19341 l -1.53384,-0.746718 1.65058,0.432714 c 0.02299,-0.052006 0.04748,-0.103175 0.07349,-0.153464 l -1.42024,-0.926771 1.55394,0.696261 c 0.03371,-0.052173 0.06909,-0.103175 0.106106,-0.152878 l -1.20439,-1.18425 1.39675,0.953067 c 0.04112,-0.044385 0.08358,-0.087514 0.127503,-0.129136 l -0.98242,-1.36526 1.18261,1.19266 c 0.0464,-0.036346 0.094,-0.071226 0.142703,-0.104598 l -0.711126,-1.54419 0.966006,1.38867 c 0.05548,-0.029939 0.112135,-0.058078 0.169836,-0.084248 l -0.415839,-1.62831 0.67545,1.52605 c 0.06046,-0.020392 0.121892,-0.038691 0.184157,-0.054937 l -0.09987,-1.68216 0.426014,1.61771 c 0.06101,-0.00833 0.122813,-0.014655 0.185036,-0.018968 l 0.181686,-1.64472 z"
   id="path3051"
   inkscape:connector-curvature="0"
   style="fill:#ffe434" />
 </g></svg>