<?xml version="1.0" encoding="UTF-8" standalone="no"?>
<!-- Creator: CorelDRAW -->

<svg
   xmlns:dc="http://purl.org/dc/elements/1.1/"
   xmlns:cc="http://creativecommons.org/ns#"
   xmlns:rdf="http://www.w3.org/1999/02/22-rdf-syntax-ns#"
   xmlns:svg="http://www.w3.org/2000/svg"
   xmlns="http://www.w3.org/2000/svg"
   xmlns:sodipodi="http://sodipodi.sourceforge.net/DTD/sodipodi-0.dtd"
   xmlns:inkscape="http://www.inkscape.org/namespaces/inkscape"
   xml:space="preserve"
   width="109.519mm"
   height="133.729mm"
   style="shape-rendering:geometricPrecision; text-rendering:geometricPrecision; image-rendering:optimizeQuality; fill-rule:evenodd; clip-rule:evenodd"
   viewBox="0 0 104.28 127.332"
   id="svg3000"
   version="1.1"
   inkscape:version="0.48.4 r9939"
   sodipodi:docname="logo_unne.svg"
   inkscape:export-filename="D:\Mis documentos\Dario\web\logo_unne.png"
   inkscape:export-xdpi="90"
   inkscape:export-ydpi="90"><metadata
   id="metadata3013"><rdf:RDF><cc:Work
       rdf:about=""><dc:format>image/svg+xml</dc:format><dc:type
         rdf:resource="http://purl.org/dc/dcmitype/StillImage" /><dc:title></dc:title></cc:Work></rdf:RDF></metadata><sodipodi:namedview
   pagecolor="#ffffff"
   bordercolor="#666666"
   borderopacity="1"
   objecttolerance="10"
   gridtolerance="10"
   guidetolerance="10"
   inkscape:pageopacity="0"
   inkscape:pageshadow="2"
   inkscape:window-width="1618"
   inkscape:window-height="1027"
   id="namedview3011"
   showgrid="false"
   inkscape:zoom="0.81356074"
   inkscape:cx="284.7166"
   inkscape:cy="251.3543"
   inkscape:window-x="-8"
   inkscape:window-y="-8"
   inkscape:window-maximized="1"
   inkscape:current-layer="svg3000" />
 <defs
   id="defs3002">
  <style
   type="text/css"
   id="style3004">
   
    .fil1 {fill:#1F1A17}
    .fil0 {fill:#DFC544}
   
  </style>
 
  
  
 
   
   
  </defs>
 <path
   id="_101792816"
   class="fil0"
   d="m 52.6598,2.43507 1.02986,13.8148 c 0.445138,0.01714 0.887325,0.04599 1.3258,0.0877 L 58.44679,2.8476646 57.606692,16.729965 c 0.594534,0.124639 1.18012,0.271463 1.75751,0.440187 l 6.17728,-12.3754004 -3.62338,13.2848004 c 0.418382,0.177198 0.828862,0.366489 1.23429,0.566635 l 7.53574,-11.4306004 -4.72856,13.0675004 c 0.426476,0.290221 0.842192,0.593772 1.24801,0.910653 l 9.21051,-10.2485 -7.59868,11.629 c 0.381914,0.357729 0.751832,0.728599 1.10928,1.11108 l 11.1073,-8.28757 -9.74858,9.87617 c 0.319833,0.409527 0.626907,0.830481 0.919699,1.26134 l 12.6687,-5.63026 -11.3269,7.86443 c 0.234138,0.443615 0.455041,0.894847 0.66128,1.35484 l 13.3107,-3.32268 -12.4027,5.68911 c 0.18234,0.564255 0.343447,1.13755 0.48332,1.71933 l 13.7836,-0.480369 -13.3472,2.81527 c 0.06703,0.494365 0.117974,0.993587 0.153775,1.49728 l 14.7494,1.78027 -14.7178,1.03881 c -0.02447,0.504554 -0.06618,1.00501 -0.121782,1.5009 l 12.5026,3.69213 -12.962,-1.01006 c -0.127019,0.545973 -0.272415,1.0849 -0.436664,1.61564 l 12.2312,6.3501 -13.152,-3.88323 c -0.221093,0.504554 -0.459707,0.999776 -0.714602,1.4851 l 11.084,8.40745 -12.5869,-5.93124 c -0.280794,0.4041 -0.5733,0.799059 -0.878279,1.18421 l 9.6844,9.81009 -11.2136,-8.06219 c -0.369917,0.383343 -0.752974,0.754212 -1.14831,1.11166 l 7.62981,11.4038 -9.62099,-9.79257 c -0.40429,0.292792 -0.818579,0.573015 -1.24153,0.839907 l 5.52038,12.4001 -7.45271,-11.3048 c -0.478369,0.242136 -0.965403,0.468752 -1.46215,0.678229 l 3.01685,13.4086 -5.37242,-12.5629 c -0.545021,0.163678 -1.09823,0.307836 -1.65906,0.432284 l 0.577109,13.6886 -3.39324,-13.2423 c -0.49846,0.04837 -1.00235,0.07979 -1.50928,0.09674 l -0.995396,13.6492 -1.63668,-13.7084 c -0.553495,-0.04342 -1.10175,-0.106643 -1.64382,-0.187672 l -2.95134,13.2811 0.666232,-13.7408 c -0.542164,-0.137493 -1.07643,-0.29422 -1.60278,-0.468657 l -5.51781,12.5402 3.49579,-13.3169 c -0.48332,-0.211762 -0.957881,-0.43933 -1.4234,-0.681943 l -7.97041,11.662 6.08416,-12.7596 c -0.44809,-0.289554 -0.886468,-0.593486 -1.31294,-0.911891 l -10.0015,9.66526 8.11171,-11.2381 c -0.377249,-0.348398 -0.743738,-0.708127 -1.09737,-1.08042 l -11.4656,7.75598 9.87093,-9.62223 C 33.823206,53.58505 33.50661,53.144006 33.20563,52.691538 l -12.8175,5.82631 11.4804,-8.1038 c -0.239185,-0.4658 -0.461992,-0.940932 -0.670612,-1.42425 l -13.5919,3.63014 12.7486,-5.90382 c -0.148538,-0.475132 -0.280223,-0.957595 -0.398768,-1.4452 l -14.3529,1.11718 13.8655,-3.78944 c -0.06151,-0.497603 -0.106071,-1.00035 -0.135779,-1.507 l -14.4527,-1.38055 14.4623,-1.53575 c 0.0318,-0.4897 0.07693,-0.976543 0.138064,-1.45777 l -13.9324,-3.23832 14.3249,1.02025 c 0.124639,-0.550639 0.269178,-1.09395 0.431998,-1.62906 l -12.9193,-6.28945 13.9025,3.64461 c 0.193671,-0.437807 0.39991,-0.868948 0.619004,-1.29257 l -11.9626,-7.80578 13.0888,5.8645 c 0.283746,-0.439616 0.581774,-0.869329 0.893514,-1.288 l -10.1442,-9.97462 11.7644,8.02754 c 0.346399,-0.373821 0.704128,-0.737073 1.07414,-1.08747 l -8.27481,-11.4997 9.96091,10.0458 c 0.39096,-0.306217 0.791823,-0.599866 1.20202,-0.880946 l -5.9898,-13.0063002 8.13646,11.6962002 c 0.46761,-0.251944 0.944741,-0.489129 1.43063,-0.709365 l -3.50245,-13.7151002 5.68911,12.8538002 c 0.509219,-0.171676 1.02653,-0.325737 1.55099,-0.462658 l -0.84105,-14.1687002 3.58815,13.6257002 c 0.514171,-0.07018 1.03443,-0.123211 1.55879,-0.159583 l 1.52994,-13.8533002 z"
   inkscape:connector-curvature="0"
   style="fill:#c8ab37" /><path
   id="_140950424"
   class="fil1"
   d="m 0.258609,0 12.1019,0 -0.0079,79.6808 c 8.19217,45.1504 66.7451,46.7415 79.8935,3.73031 0,-75.5482 0.05599,-83.2932 0.05599,-83.2932 L 104.05749,0.0628747 104.2804,84.748175 C 88.964196,141.32897 11.767696,143.13657 0.17939551,80.513885 c -0.44571,-55.9369 0.079506,-80.5140003 0.079506,-80.5140003 z"
   inkscape:connector-curvature="0"
   style="fill:#1f1a17" />
</svg>